<svg width="122" height="28" viewBox="0 0 122 28" fill="none" xmlns="http://www.w3.org/2000/svg">
  <path d="M13.68 23.02C13.8933 23.3667 13.9733 23.68 13.92 23.96C13.8667 24.2533 13.7333 24.4933 13.52 24.68C13.3067 24.88 13.0467 25.0067 12.74 25.06C12.4467 25.1133 12.1467 25.08 11.84 24.96C11.5467 24.8533 11.2933 24.64 11.08 24.32L9.66 22C9.48667 21.7333 9.26 21.5333 8.98 21.4C8.71333 21.28 8.36667 21.22 7.94 21.22L10.3 20.32C10.9133 20.32 11.4133 20.4267 11.8 20.64C12.2 20.8533 12.56 21.22 12.88 21.74L13.68 23.02ZM7.96 21.22C6.57333 21.22 5.35333 20.92 4.3 20.32C3.26 19.7067 2.44667 18.8533 1.86 17.76C1.28667 16.6667 1 15.3933 1 13.94C1 12.8333 1.16 11.84 1.48 10.96C1.81333 10.0667 2.28667 9.30667 2.9 8.68C3.51333 8.04 4.24667 7.54667 5.1 7.2C5.96667 6.85333 6.92 6.68 7.96 6.68C9.37333 6.68 10.6 6.98 11.64 7.58C12.68 8.18 13.4867 9.02667 14.06 10.12C14.6467 11.2 14.94 12.4667 14.94 13.92C14.94 15.0267 14.7733 16.0267 14.44 16.92C14.1067 17.8133 13.6333 18.58 13.02 19.22C12.4067 19.86 11.6733 20.3533 10.82 20.7C9.96667 21.0467 9.01333 21.22 7.96 21.22ZM7.96 18.58C8.74667 18.58 9.41333 18.4 9.96 18.04C10.52 17.6667 10.9467 17.1333 11.24 16.44C11.5467 15.7333 11.7 14.9 11.7 13.94C11.7 12.4733 11.3733 11.34 10.72 10.54C10.0667 9.72667 9.14667 9.32 7.96 9.32C7.18667 9.32 6.52 9.5 5.96 9.86C5.4 10.22 4.97333 10.7467 4.68 11.44C4.38667 12.1333 4.24 12.9667 4.24 13.94C4.24 15.3933 4.56667 16.5333 5.22 17.36C5.87333 18.1733 6.78667 18.58 7.96 18.58ZM18.598 21.18C18.1046 21.18 17.7246 21.0467 17.458 20.78C17.2046 20.5133 17.078 20.1333 17.078 19.64V12.54C17.078 12.0467 17.2046 11.6733 17.458 11.42C17.7246 11.1533 18.0913 11.02 18.558 11.02C19.038 11.02 19.4046 11.1533 19.658 11.42C19.9113 11.6733 20.038 12.0467 20.038 12.54V13.68L19.818 13.02C20.1246 12.3667 20.578 11.8667 21.178 11.52C21.7913 11.16 22.4846 10.98 23.258 10.98C24.0446 10.98 24.6913 11.1333 25.198 11.44C25.7046 11.7333 26.0846 12.1867 26.338 12.8C26.5913 13.4 26.718 14.1667 26.718 15.1V19.64C26.718 20.1333 26.5846 20.5133 26.318 20.78C26.0646 21.0467 25.6913 21.18 25.198 21.18C24.718 21.18 24.3446 21.0467 24.078 20.78C23.8246 20.5133 23.698 20.1333 23.698 19.64V15.24C23.698 14.56 23.5713 14.0733 23.318 13.78C23.078 13.4733 22.7046 13.32 22.198 13.32C21.558 13.32 21.0446 13.52 20.658 13.92C20.2846 14.32 20.098 14.8533 20.098 15.52V19.64C20.098 20.6667 19.598 21.18 18.598 21.18ZM30.4925 21.16C29.9992 21.16 29.6192 21.02 29.3525 20.74C29.0992 20.4467 28.9725 20.04 28.9725 19.52V12.68C28.9725 12.1467 29.0992 11.74 29.3525 11.46C29.6192 11.1667 29.9992 11.02 30.4925 11.02C30.9725 11.02 31.3392 11.1667 31.5925 11.46C31.8592 11.74 31.9925 12.1467 31.9925 12.68V19.52C31.9925 20.04 31.8658 20.4467 31.6125 20.74C31.3592 21.02 30.9858 21.16 30.4925 21.16ZM30.4925 9.38C29.9325 9.38 29.4992 9.25333 29.1925 9C28.8992 8.73333 28.7525 8.36 28.7525 7.88C28.7525 7.38667 28.8992 7.01333 29.1925 6.76C29.4992 6.49333 29.9325 6.36 30.4925 6.36C31.0525 6.36 31.4792 6.49333 31.7725 6.76C32.0658 7.01333 32.2125 7.38667 32.2125 7.88C32.2125 8.36 32.0658 8.73333 31.7725 9C31.4792 9.25333 31.0525 9.38 30.4925 9.38Z" fill="#18181B"/>
  <path d="M38.632 11.688V21H41.144V11.688H44.568V9.576H35.208V11.688H38.632ZM56.3813 16.68V9.576H53.8693V16.68C53.8693 17.5333 53.6986 18.1627 53.3573 18.568C53.0159 18.9627 52.3973 19.16 51.5013 19.16C50.9893 19.16 50.5786 19.0907 50.2693 18.952C49.9706 18.8027 49.7359 18.616 49.5653 18.392C49.3946 18.1573 49.2826 17.8907 49.2293 17.592C49.1759 17.2933 49.1493 16.9893 49.1493 16.68V9.576H46.6373V16.68C46.6373 18.2373 47.0586 19.3893 47.9013 20.136C48.7546 20.8827 49.9546 21.256 51.5013 21.256C53.0266 21.256 54.2213 20.8827 55.0853 20.136C55.9493 19.3787 56.3813 18.2267 56.3813 16.68ZM61.8726 11.688V21H64.3846V11.688H67.8086V9.576H58.4486V11.688H61.8726ZM71.9419 15.336C71.9419 14.8347 71.9952 14.3493 72.1019 13.88C72.2192 13.4107 72.4005 12.9947 72.6459 12.632C72.8912 12.2587 73.2112 11.9653 73.6059 11.752C74.0005 11.528 74.4805 11.416 75.0459 11.416C75.6112 11.416 76.0912 11.528 76.4859 11.752C76.8805 11.9653 77.2005 12.2587 77.4459 12.632C77.6912 12.9947 77.8672 13.4107 77.9739 13.88C78.0912 14.3493 78.1499 14.8347 78.1499 15.336C78.1499 15.816 78.0912 16.2853 77.9739 16.744C77.8672 17.192 77.6912 17.5973 77.4459 17.96C77.2005 18.3227 76.8805 18.616 76.4859 18.84C76.0912 19.0533 75.6112 19.16 75.0459 19.16C74.4805 19.16 74.0005 19.0533 73.6059 18.84C73.2112 18.616 72.8912 18.3227 72.6459 17.96C72.4005 17.5973 72.2192 17.192 72.1019 16.744C71.9952 16.2853 71.9419 15.816 71.9419 15.336ZM69.4299 15.336C69.4299 16.168 69.5579 16.9467 69.8139 17.672C70.0699 18.3867 70.4379 19.0107 70.9179 19.544C71.3979 20.0773 71.9845 20.4987 72.6779 20.808C73.3819 21.1067 74.1712 21.256 75.0459 21.256C75.9312 21.256 76.7205 21.1067 77.4139 20.808C78.1072 20.4987 78.6939 20.0773 79.1739 19.544C79.6539 19.0107 80.0219 18.3867 80.2779 17.672C80.5339 16.9467 80.6619 16.168 80.6619 15.336C80.6619 14.4827 80.5339 13.6933 80.2779 12.968C80.0219 12.232 79.6539 11.592 79.1739 11.048C78.6939 10.504 78.1072 10.0773 77.4139 9.768C76.7205 9.45867 75.9312 9.304 75.0459 9.304C74.1712 9.304 73.3819 9.45867 72.6779 9.768C71.9845 10.0773 71.3979 10.504 70.9179 11.048C70.4379 11.592 70.0699 12.232 69.8139 12.968C69.5579 13.6933 69.4299 14.4827 69.4299 15.336ZM85.691 14.744V11.528H88.443C89.019 11.528 89.451 11.656 89.739 11.912C90.027 12.1573 90.171 12.5573 90.171 13.112C90.171 13.688 90.027 14.104 89.739 14.36C89.451 14.616 89.019 14.744 88.443 14.744H85.691ZM83.179 9.576V21H85.691V16.536H88.203C88.8323 16.536 89.2857 16.6747 89.563 16.952C89.8403 17.2293 90.0217 17.6667 90.107 18.264C90.171 18.7227 90.219 19.2027 90.251 19.704C90.283 20.2053 90.3683 20.6373 90.507 21H93.019C92.9017 20.84 92.811 20.648 92.747 20.424C92.6937 20.1893 92.651 19.944 92.619 19.688C92.5977 19.432 92.5817 19.1813 92.571 18.936C92.5603 18.6907 92.5497 18.4773 92.539 18.296C92.5177 18.008 92.475 17.72 92.411 17.432C92.3577 17.144 92.267 16.8827 92.139 16.648C92.011 16.4027 91.8457 16.1947 91.643 16.024C91.4403 15.8427 91.1843 15.7093 90.875 15.624V15.592C91.515 15.336 91.9737 14.9627 92.251 14.472C92.539 13.9813 92.683 13.4 92.683 12.728C92.683 12.2907 92.603 11.8853 92.443 11.512C92.2937 11.128 92.0697 10.792 91.771 10.504C91.483 10.216 91.131 9.992 90.715 9.832C90.3097 9.66133 89.851 9.576 89.339 9.576H83.179ZM95.5259 9.576V21H98.0379V9.576H95.5259ZM103.925 16.584L105.413 12.392H105.445L106.885 16.584H103.925ZM104.165 9.576L99.8446 21H102.373L103.269 18.456H107.541L108.405 21H111.013L106.741 9.576H104.165ZM112.798 9.576V21H120.878V18.888H115.31V9.576H112.798Z" fill="#38BDF8"/>
</svg>
