<svg width="119" height="28" viewBox="0 0 119 28" fill="none" xmlns="http://www.w3.org/2000/svg">
  <path d="M13.26 23.26C13.4467 23.5533 13.52 23.82 13.48 24.06C13.44 24.3 13.3333 24.5 13.16 24.66C12.9867 24.8333 12.7733 24.94 12.52 24.98C12.2667 25.0333 12.0133 25.0067 11.76 24.9C11.5067 24.8067 11.2933 24.62 11.12 24.34L9.74 22.12C9.55333 21.8133 9.3 21.58 8.98 21.42C8.67333 21.2733 8.29333 21.2 7.84 21.2L9.82 20.42C10.4467 20.42 10.9467 20.5333 11.32 20.76C11.6933 20.9733 12.0533 21.3533 12.4 21.9L13.26 23.26ZM7.86 21.2C6.5 21.2 5.30667 20.9 4.28 20.3C3.26667 19.7 2.48 18.86 1.92 17.78C1.36 16.6867 1.08 15.4067 1.08 13.94C1.08 12.8333 1.24 11.84 1.56 10.96C1.88 10.0667 2.33333 9.30667 2.92 8.68C3.52 8.04 4.23333 7.55333 5.06 7.22C5.9 6.87333 6.83333 6.7 7.86 6.7C9.23333 6.7 10.4267 7 11.44 7.6C12.4533 8.18667 13.24 9.02 13.8 10.1C14.36 11.18 14.64 12.4533 14.64 13.92C14.64 15.0267 14.48 16.0267 14.16 16.92C13.84 17.8133 13.38 18.58 12.78 19.22C12.1933 19.86 11.48 20.3533 10.64 20.7C9.81333 21.0333 8.88667 21.2 7.86 21.2ZM7.86 19C8.72667 19 9.46 18.8 10.06 18.4C10.6733 18 11.14 17.42 11.46 16.66C11.7933 15.9 11.96 14.9933 11.96 13.94C11.96 12.34 11.6 11.1 10.88 10.22C10.1733 9.34 9.16667 8.9 7.86 8.9C7.00667 8.9 6.27333 9.1 5.66 9.5C5.04667 9.88667 4.57333 10.46 4.24 11.22C3.92 11.9667 3.76 12.8733 3.76 13.94C3.76 15.5267 4.12 16.7667 4.84 17.66C5.56 18.5533 6.56667 19 7.86 19ZM18.2431 21.16C17.8431 21.16 17.5365 21.0533 17.3231 20.84C17.1098 20.6133 17.0031 20.2933 17.0031 19.88V12.32C17.0031 11.9067 17.1098 11.5933 17.3231 11.38C17.5365 11.1667 17.8365 11.06 18.2231 11.06C18.6098 11.06 18.9098 11.1667 19.1231 11.38C19.3365 11.5933 19.4431 11.9067 19.4431 12.32V13.68L19.2231 13.18C19.5165 12.4733 19.9698 11.94 20.5831 11.58C21.2098 11.2067 21.9165 11.02 22.7031 11.02C23.4898 11.02 24.1365 11.1667 24.6431 11.46C25.1498 11.7533 25.5298 12.2 25.7831 12.8C26.0365 13.3867 26.1631 14.1333 26.1631 15.04V19.88C26.1631 20.2933 26.0565 20.6133 25.8431 20.84C25.6298 21.0533 25.3231 21.16 24.9231 21.16C24.5231 21.16 24.2098 21.0533 23.9831 20.84C23.7698 20.6133 23.6631 20.2933 23.6631 19.88V15.16C23.6631 14.4 23.5165 13.8467 23.2231 13.5C22.9431 13.1533 22.5031 12.98 21.9031 12.98C21.1698 12.98 20.5831 13.2133 20.1431 13.68C19.7165 14.1333 19.5031 14.74 19.5031 15.5V19.88C19.5031 20.7333 19.0831 21.16 18.2431 21.16ZM29.9423 21.14C29.5423 21.14 29.2357 21.02 29.0223 20.78C28.809 20.54 28.7023 20.2067 28.7023 19.78V12.44C28.7023 12 28.809 11.6667 29.0223 11.44C29.2357 11.2 29.5423 11.08 29.9423 11.08C30.3423 11.08 30.649 11.2 30.8623 11.44C31.089 11.6667 31.2023 12 31.2023 12.44V19.78C31.2023 20.2067 31.0957 20.54 30.8823 20.78C30.669 21.02 30.3557 21.14 29.9423 21.14ZM29.9423 9.22C29.4757 9.22 29.109 9.10667 28.8423 8.88C28.589 8.64 28.4623 8.31333 28.4623 7.9C28.4623 7.47333 28.589 7.14667 28.8423 6.92C29.109 6.69333 29.4757 6.58 29.9423 6.58C30.4223 6.58 30.789 6.69333 31.0423 6.92C31.2957 7.14667 31.4223 7.47333 31.4223 7.9C31.4223 8.31333 31.2957 8.64 31.0423 8.88C30.789 9.10667 30.4223 9.22 29.9423 9.22Z" fill="#18181B"/>
  <path d="M35.128 9.576H44.376V11.304H40.744V21H38.744V11.304H35.128V9.576ZM46.3724 9.576H48.3724V16.232C48.3724 16.616 48.3884 17.0053 48.4204 17.4C48.463 17.7947 48.5697 18.152 48.7404 18.472C48.9217 18.7813 49.1884 19.0373 49.5404 19.24C49.903 19.4427 50.4097 19.544 51.0604 19.544C51.711 19.544 52.2124 19.4427 52.5644 19.24C52.927 19.0373 53.1937 18.7813 53.3644 18.472C53.5457 18.152 53.6524 17.7947 53.6844 17.4C53.727 17.0053 53.7484 16.616 53.7484 16.232V9.576H55.7484V16.888C55.7484 17.624 55.6364 18.264 55.4124 18.808C55.1884 19.352 54.8684 19.8107 54.4524 20.184C54.047 20.5467 53.5564 20.8187 52.9804 21C52.4044 21.1813 51.7644 21.272 51.0604 21.272C50.3564 21.272 49.7164 21.1813 49.1404 21C48.5644 20.8187 48.0684 20.5467 47.6524 20.184C47.247 19.8107 46.9324 19.352 46.7084 18.808C46.4844 18.264 46.3724 17.624 46.3724 16.888V9.576ZM57.7593 9.576H67.0073V11.304H63.3753V21H61.3753V11.304H57.7593V9.576ZM73.9956 10.936C73.3876 10.936 72.8596 11.0587 72.4116 11.304C71.9743 11.5493 71.617 11.88 71.3396 12.296C71.0623 12.7013 70.8543 13.1653 70.7156 13.688C70.5876 14.2107 70.5236 14.744 70.5236 15.288C70.5236 15.832 70.5876 16.3653 70.7156 16.888C70.8543 17.4107 71.0623 17.88 71.3396 18.296C71.617 18.7013 71.9743 19.0267 72.4116 19.272C72.8596 19.5173 73.3876 19.64 73.9956 19.64C74.6036 19.64 75.1263 19.5173 75.5636 19.272C76.0116 19.0267 76.3743 18.7013 76.6516 18.296C76.929 17.88 77.1316 17.4107 77.2596 16.888C77.3983 16.3653 77.4676 15.832 77.4676 15.288C77.4676 14.744 77.3983 14.2107 77.2596 13.688C77.1316 13.1653 76.929 12.7013 76.6516 12.296C76.3743 11.88 76.0116 11.5493 75.5636 11.304C75.1263 11.0587 74.6036 10.936 73.9956 10.936ZM73.9956 9.304C74.849 9.304 75.6116 9.464 76.2836 9.784C76.9663 10.104 77.5423 10.536 78.0116 11.08C78.481 11.624 78.8383 12.2587 79.0836 12.984C79.3396 13.7093 79.4676 14.4773 79.4676 15.288C79.4676 16.1093 79.3396 16.8827 79.0836 17.608C78.8383 18.3333 78.481 18.968 78.0116 19.512C77.5423 20.056 76.9663 20.488 76.2836 20.808C75.6116 21.1173 74.849 21.272 73.9956 21.272C73.1423 21.272 72.3743 21.1173 71.6916 20.808C71.0196 20.488 70.449 20.056 69.9796 19.512C69.5103 18.968 69.1476 18.3333 68.8916 17.608C68.6463 16.8827 68.5236 16.1093 68.5236 15.288C68.5236 14.4773 68.6463 13.7093 68.8916 12.984C69.1476 12.2587 69.5103 11.624 69.9796 11.08C70.449 10.536 71.0196 10.104 71.6916 9.784C72.3743 9.464 73.1423 9.304 73.9956 9.304ZM82.0879 9.576H87.5439C88.8025 9.576 89.7465 9.848 90.3759 10.392C91.0052 10.936 91.3199 11.6933 91.3199 12.664C91.3199 13.208 91.2399 13.6613 91.0799 14.024C90.9199 14.376 90.7332 14.664 90.5199 14.888C90.3065 15.1013 90.0932 15.256 89.8799 15.352C89.6772 15.448 89.5279 15.512 89.4319 15.544V15.576C89.6025 15.5973 89.7839 15.6507 89.9759 15.736C90.1785 15.8213 90.3652 15.96 90.5359 16.152C90.7065 16.3333 90.8452 16.5733 90.9519 16.872C91.0692 17.1707 91.1279 17.544 91.1279 17.992C91.1279 18.664 91.1759 19.2773 91.2719 19.832C91.3785 20.376 91.5385 20.7653 91.7519 21H89.6079C89.4585 20.7547 89.3679 20.4827 89.3359 20.184C89.3145 19.8853 89.3039 19.5973 89.3039 19.32C89.3039 18.7973 89.2719 18.3493 89.2079 17.976C89.1439 17.592 89.0265 17.2773 88.8559 17.032C88.6852 16.776 88.4505 16.5893 88.1519 16.472C87.8639 16.3547 87.4905 16.296 87.0319 16.296H84.0879V21H82.0879V9.576ZM84.0879 14.776H87.3679C88.0079 14.776 88.4932 14.6267 88.8239 14.328C89.1545 14.0187 89.3199 13.56 89.3199 12.952C89.3199 12.5893 89.2665 12.296 89.1599 12.072C89.0532 11.8373 88.9039 11.656 88.7119 11.528C88.5305 11.4 88.3172 11.3147 88.0719 11.272C87.8372 11.2293 87.5919 11.208 87.3359 11.208H84.0879V14.776ZM94.1535 9.576H96.1535V21H94.1535V9.576ZM102.463 9.576H104.591L108.991 21H106.847L105.775 17.976H101.215L100.143 21H98.0786L102.463 9.576ZM101.759 16.456H105.247L103.535 11.544H103.487L101.759 16.456ZM110.878 9.576H112.878V19.272H118.686V21H110.878V9.576Z" fill="#38BDF8"/>
</svg>
