<svg width="48" height="48" viewBox="0 0 48 48" fill="none" xmlns="http://www.w3.org/2000/svg">
  <path d="M18.2857 36L29.7143 12M16 24.5714C16 25.622 16.2069 26.6623 16.609 27.6329C17.011 28.6035 17.6003 29.4854 18.3431 30.2283C19.086 30.9712 19.9679 31.5604 20.9385 31.9625C21.9091 32.3645 22.9494 32.5714 24 32.5714C25.0506 32.5714 26.0909 32.3645 27.0615 31.9625C28.0321 31.5604 28.914 30.9712 29.6569 30.2283C30.3997 29.4854 30.989 28.6035 31.391 27.6329C31.7931 26.6623 32 25.622 32 24.5714C32 23.5209 31.7931 22.4806 31.391 21.51C30.989 20.5394 30.3997 19.6574 29.6569 18.9146C28.914 18.1717 28.0321 17.5824 27.0615 17.1804C26.0909 16.7784 25.0506 16.5714 24 16.5714C22.9494 16.5714 21.9091 16.7784 20.9385 17.1804C19.9679 17.5824 19.086 18.1717 18.3431 18.9146C17.6003 19.6574 17.011 20.5394 16.609 21.51C16.2069 22.4806 16 23.5209 16 24.5714Z" stroke="currentColor" stroke-width="2" stroke-linecap="round" vector-effect="non-scaling-stroke"/>
</svg>
