<svg width="50" height="48" viewBox="0 0 50 48" fill="none" xmlns="http://www.w3.org/2000/svg">
  <path fill-rule="evenodd" clip-rule="evenodd" d="M42.9394 37.0213C42.5099 36.6741 41.8802 36.7409 41.5331 37.1704C41.1859 37.5999 41.2526 38.2295 41.6822 38.5767L45.174 41.399H24.2884V43.399H45.174L41.6822 46.2213C41.2526 46.5685 41.1859 47.1981 41.5331 47.6277C41.8802 48.0572 42.5099 48.124 42.9394 47.7768L48.6306 43.1767C48.8655 42.9869 49.002 42.701 49.002 42.399C49.002 42.097 48.8655 41.8112 48.6306 41.6213L42.9394 37.0213ZM1.52344 42.716V42.0821C1.49018 42.1817 1.47217 42.2882 1.47217 42.399C1.47217 42.5098 1.49018 42.6164 1.52344 42.716Z" fill="#D4D4D8"/>
  <path fill-rule="evenodd" clip-rule="evenodd" d="M42.9394 0.223166C42.5099 -0.124005 41.8802 -0.057244 41.5331 0.37228C41.1859 0.801804 41.2526 1.43144 41.6822 1.77861L45.174 4.60093H24.2884V6.60093H45.174L41.6822 9.42324C41.2526 9.77041 41.1859 10.4 41.5331 10.8296C41.8802 11.2591 42.5099 11.3259 42.9394 10.9787L48.6306 6.37865C48.8655 6.18879 49.002 5.90295 49.002 5.60093C49.002 5.2989 48.8655 5.01306 48.6306 4.8232L42.9394 0.223166ZM1.52344 5.91787V5.28398C1.49018 5.38358 1.47217 5.49015 1.47217 5.60093C1.47217 5.71171 1.49018 5.81828 1.52344 5.91787Z" fill="#D4D4D8"/>
  <path fill-rule="evenodd" clip-rule="evenodd" d="M24.2373 36.7792V42.4014C24.2373 42.9537 24.685 43.4014 25.2373 43.4014C25.7896 43.4014 26.2373 42.9537 26.2373 42.4014V36.7792H24.2373Z" fill="#D4D4D8"/>
  <path fill-rule="evenodd" clip-rule="evenodd" d="M26.2373 6.11218C26.2373 5.5599 25.7896 5.11218 25.2373 5.11218C24.685 5.11218 24.2373 5.5599 24.2373 6.11218V12.2457H26.2373V6.11218Z" fill="#D4D4D8"/>
  <path fill-rule="evenodd" clip-rule="evenodd" d="M13.855 24.0233H1.99805C1.44576 24.0233 0.998047 24.471 0.998047 25.0233C0.998047 25.5756 1.44576 26.0233 1.99805 26.0233H13.855V24.0233Z" fill="#D4D4D8"/>
</svg>
